<svg width="29" height="25" viewBox="0 0 29 25" fill="none" xmlns="http://www.w3.org/2000/svg">
<g clip-path="url(#clip0)">
<circle cx="8.15764" cy="12.3327" r="5.5462" stroke="#1C7E0B" stroke-width="1.73118"/>
<path fill-rule="evenodd" clip-rule="evenodd" d="M30.599 8.60872C29.0123 9.64509 27.7759 9.94803 26.7203 9.88644C25.5652 9.81905 24.5858 9.31536 23.5293 8.73687L23.3538 8.64056L23.3538 8.64056C22.3586 8.09396 21.2853 7.50441 20.0012 7.28905C18.8211 7.09115 17.4811 7.21003 15.8518 7.91006V9.12891C17.4976 8.36918 18.7906 8.25128 19.8932 8.43619C21.0593 8.63174 22.035 9.16707 23.0462 9.72189L23.2005 9.8065C24.2555 10.3842 25.3606 10.9644 26.6825 11.0415C27.816 11.1076 29.0798 10.804 30.599 9.88659V8.60872Z" fill="#1C7E0B"/>
<path fill-rule="evenodd" clip-rule="evenodd" d="M30.599 11.1736C29.0123 12.21 27.7759 12.513 26.7203 12.4514C25.5652 12.384 24.5858 11.8803 23.5293 11.3018L23.3538 11.2055C22.3586 10.6589 21.2853 10.0693 20.0012 9.854C18.8211 9.65609 17.4811 9.77497 15.8518 10.475V11.6938C17.4976 10.9341 18.7906 10.8162 19.8932 11.0011C21.0593 11.1967 22.035 11.732 23.0462 12.2868L23.2005 12.3714C24.2555 12.9491 25.3606 13.5293 26.6825 13.6064C27.816 13.6726 29.0798 13.369 30.599 12.4515V11.1736Z" fill="#1C7E0B"/>
<path fill-rule="evenodd" clip-rule="evenodd" d="M30.599 13.7381C29.0123 14.7745 27.7759 15.0774 26.7203 15.0158C25.5652 14.9484 24.5858 14.4448 23.5293 13.8663L23.3538 13.77C22.3586 13.2234 21.2853 12.6338 20.0012 12.4184C18.8211 12.2205 17.4811 12.3394 15.8518 13.0395V14.2583C17.4976 13.4986 18.7906 13.3807 19.8932 13.5656C21.0593 13.7611 22.035 14.2965 23.0462 14.8513L23.2005 14.9359C24.2555 15.5136 25.3606 16.0938 26.6825 16.1709C27.816 16.237 29.0798 15.9334 30.599 15.016V13.7381Z" fill="#1C7E0B"/>
<path fill-rule="evenodd" clip-rule="evenodd" d="M30.599 16.3026C29.0123 17.3389 27.7759 17.6419 26.7203 17.5803C25.5652 17.5129 24.5858 17.0092 23.5293 16.4307L23.3538 16.3344C22.3586 15.7878 21.2853 15.1983 20.0012 14.9829C18.8211 14.785 17.4811 14.9039 15.8518 15.6039V16.8228C17.4976 16.063 18.7906 15.9451 19.8932 16.13C21.0593 16.3256 22.035 16.8609 23.0462 17.4157L23.2005 17.5003C24.2555 18.078 25.3606 18.6582 26.6825 18.7353C27.816 18.8015 29.0798 18.4979 30.599 17.5804V16.3026Z" fill="#1C7E0B"/>
</g>
<defs>
<clipPath id="clip0">
<rect width="27.6989" height="27.6989" fill="white" transform="translate(0.591797 0.150391)"/>
</clipPath>
</defs>
</svg>
