
<svg width="34" height="32" viewBox="0 0 34 32" fill="none" xmlns="http://www.w3.org/2000/svg">
<path d="M25.9018 13.0799C25.3519 13.3547 24.8767 13.5897 24.4031 13.8312C21.3294 15.3956 18.2541 16.9553 15.1866 18.5309C14.7862 18.7358 14.4419 18.7374 14.0462 18.5325C12.4058 17.6812 10.7575 16.8489 9.01422 15.9595C9.01422 16.509 9.01422 16.9791 9.01422 17.4477C9.01422 18.1497 9.02045 18.8501 9.01111 19.5522C9.00487 20.0461 8.77586 20.3114 8.38795 20.3145C7.97978 20.3177 7.7383 20.0334 7.73675 19.522C7.73363 18.2736 7.72584 17.0236 7.74298 15.7752C7.74765 15.4496 7.67287 15.2527 7.35973 15.1002C6.10563 14.4855 4.86866 13.8375 3.6239 13.2054C3.55379 13.1688 3.47278 13.153 3.32478 13.1037C3.32478 13.3356 3.32478 13.5167 3.32478 13.6961C3.32478 16.7758 3.33101 19.8555 3.31699 22.9352C3.31543 23.3085 3.42448 23.5086 3.75008 23.6912C7.21485 25.6369 10.6703 27.6 14.121 29.5711C14.3204 29.6854 14.5463 29.9062 14.5868 30.1127C14.6273 30.3128 14.4996 30.6876 14.3469 30.7575C14.1132 30.8624 13.744 30.8671 13.5197 30.7464C12.1129 29.9872 10.7295 29.1819 9.33826 28.391C7.11203 27.1283 4.89047 25.8561 2.65488 24.6093C2.18751 24.3488 1.9881 24.0311 1.99122 23.4736C2.01147 19.7602 2.00991 16.0484 1.98966 12.335C1.98654 11.76 2.18596 11.436 2.69071 11.1803C6.47641 9.27118 10.2512 7.34141 14.0244 5.40688C14.4155 5.20675 14.7535 5.17817 15.1601 5.38782C18.991 7.35571 22.8297 9.31248 26.6714 11.2597C27.0687 11.4614 27.2401 11.7362 27.237 12.1841C27.2245 13.8613 27.2338 15.537 27.2307 17.2142C27.2292 17.7987 27.0282 18.0624 26.5951 18.0751C26.1449 18.0878 25.9096 17.8066 25.9065 17.2094C25.8987 16.0468 25.9034 14.8826 25.9034 13.7184C25.9018 13.5373 25.9018 13.3547 25.9018 13.0799ZM9.86328 14.881C11.4305 15.6863 12.8934 16.4486 14.3687 17.1793C14.5245 17.2571 14.794 17.2094 14.9654 17.1221C18.1809 15.4989 21.3886 13.8613 24.5979 12.2238C24.7365 12.1539 24.8674 12.0666 25.0621 11.9522C23.5774 11.1978 22.1644 10.4926 20.7654 9.75561C20.4461 9.58725 20.2046 9.58248 19.8837 9.74926C17.9425 10.7578 15.9889 11.7426 14.0416 12.7384C12.68 13.4341 11.3215 14.1329 9.86328 14.881ZM4.14112 11.9665C5.49337 12.6542 6.76773 13.2943 8.03119 13.955C8.27734 14.0837 8.45805 14.0948 8.71511 13.963C11.4664 12.5446 14.2285 11.1422 16.986 9.73655C17.578 9.43477 18.17 9.12823 18.8399 8.78358C17.5048 8.10379 16.2569 7.48277 15.023 6.83316C14.7208 6.67433 14.4793 6.68227 14.1833 6.83475C11.9244 7.99579 9.65763 9.14253 7.39557 10.2972C6.3362 10.8372 5.2815 11.382 4.14112 11.9665Z" fill="#ffffff"/>
<path d="M33.1171 27.3719L33.1167 27.3712L25.3334 16.2949L25.3328 16.2939C24.9588 15.7643 24.3465 15.4488 23.693 15.4461C23.0397 15.4433 22.4235 15.7533 22.0458 16.284C22.0458 16.284 22.0458 16.2841 22.0457 16.2841L14.1616 27.3603L14.161 27.3611C13.6977 28.0147 13.6402 28.8671 14.021 29.576L14.0214 29.5767C14.4002 30.2792 15.1425 30.7163 15.9463 30.7163H31.3237C32.1256 30.7163 32.8664 30.2851 33.2461 29.5837L33.2465 29.583C33.6266 28.8782 33.5755 28.0265 33.1171 27.3719ZM23.635 28.4333C23.2432 28.4333 22.9488 28.1279 22.9488 27.7779C22.9488 27.428 23.2432 27.1226 23.635 27.1226C24.0268 27.1226 24.3212 27.428 24.3212 27.7779C24.3212 28.1278 24.0268 28.4333 23.635 28.4333ZM22.9441 19.671C23.1184 19.4867 23.3683 19.3784 23.635 19.3784C23.902 19.3784 24.1522 19.487 24.3266 19.6717L24.6901 19.3284L24.3266 19.6717C24.5004 19.8558 24.5859 20.101 24.5658 20.3475C24.5658 20.3478 24.5657 20.348 24.5657 20.3483L24.1674 24.9723C23.9951 24.9404 23.8172 24.9233 23.635 24.9233C23.4524 24.9233 23.2746 24.9404 23.1026 24.9725L22.7043 20.3483C22.7043 20.348 22.7042 20.3478 22.7042 20.3475C22.6842 20.1023 22.7687 19.8584 22.9441 19.671Z" fill="#ffffff"/>
</svg>
