<svg width="139" height="151" viewBox="0 0 139 151" fill="none" xmlns="http://www.w3.org/2000/svg">
<g opacity="0.5">
<rect x="18.6338" y="17.3701" width="9.81442" height="1.57095" rx="0.343365" fill="#D1D9E9"/>
<rect x="18.502" y="21.4014" width="19.7615" height="1.88514" rx="0.343365" fill="#E3E7F0"/>
<rect x="18.502" y="24.334" width="15.2521" height="1.88514" rx="0.343365" fill="#E3E7F0"/>
<rect x="18.6348" y="27.4756" width="19.7615" height="1.88514" rx="0.343365" fill="#E3E7F0"/>
<rect x="18.6348" y="30.4082" width="15.2521" height="1.88514" rx="0.343365" fill="#E3E7F0"/>
</g>
<g opacity="0.5">
<rect x="46.8232" y="17.3701" width="9.81442" height="1.57095" rx="0.343365" fill="#D1D9E9"/>
<rect x="46.6924" y="21.4014" width="19.7615" height="1.88514" rx="0.343365" fill="#E3E7F0"/>
<rect x="46.6924" y="24.334" width="15.2521" height="1.88514" rx="0.343365" fill="#E3E7F0"/>
<rect x="46.8252" y="27.4756" width="19.7615" height="1.88514" rx="0.343365" fill="#E3E7F0"/>
<rect x="46.8252" y="30.4082" width="15.2521" height="1.88514" rx="0.343365" fill="#E3E7F0"/>
</g>
<g opacity="0.5">
<rect x="18.6357" y="45.0078" width="9.89929" height="1.53807" rx="0.343365" fill="#D1D9E9"/>
<rect x="18.502" y="49.0449" width="108.89" height="1.84568" rx="0.343365" fill="#E3E7F0"/>
<rect x="18.502" y="51.7363" width="102.155" height="1.84568" rx="0.343365" fill="#E3E7F0"/>
<rect x="18.502" y="54.8135" width="108.89" height="1.84568" rx="0.343365" fill="#E3E7F0"/>
<rect x="18.502" y="57.6963" width="102.155" height="1.84568" rx="0.343365" fill="#E3E7F0"/>
<rect x="18.502" y="60.7725" width="108.89" height="1.84568" rx="0.343365" fill="#E3E7F0"/>
<rect x="18.502" y="63.6572" width="102.155" height="1.84568" rx="0.343365" fill="#E3E7F0"/>
<rect x="18.502" y="66.7334" width="108.89" height="1.84568" rx="0.343365" fill="#E3E7F0"/>
<rect x="18.502" y="69.6172" width="102.155" height="1.84568" rx="0.343365" fill="#E3E7F0"/>
</g>
<g opacity="0.5">
<rect x="18.6357" y="77.0664" width="9.89929" height="1.53807" rx="0.343365" fill="#D1D9E9"/>
<rect x="18.502" y="81.1045" width="108.89" height="1.84568" rx="0.343365" fill="#E3E7F0"/>
<rect x="18.502" y="83.7959" width="102.155" height="1.84568" rx="0.343365" fill="#E3E7F0"/>
<rect x="18.502" y="86.8721" width="108.89" height="1.84568" rx="0.343365" fill="#E3E7F0"/>
<rect x="18.502" y="89.7559" width="102.155" height="1.84568" rx="0.343365" fill="#E3E7F0"/>
<rect x="18.502" y="92.832" width="108.89" height="1.84568" rx="0.343365" fill="#E3E7F0"/>
<rect x="18.502" y="92.832" width="22.6624" height="1.65823" rx="0.343365" fill="#057EFF"/>
<rect x="18.502" y="92.832" width="22.6624" height="1.65823" rx="0.343365" fill="#057EFF"/>
<rect x="90.3584" y="49.165" width="22.6624" height="1.65823" rx="0.343365" fill="#057EFF"/>
<rect x="46.1387" y="27.6084" width="22.6624" height="1.65823" rx="0.343365" fill="#057EFF"/>
<rect x="18.502" y="95.7158" width="102.155" height="1.84568" rx="0.343365" fill="#E3E7F0"/>
<rect x="18.502" y="98.792" width="108.89" height="1.84568" rx="0.343365" fill="#E3E7F0"/>
<rect x="18.502" y="101.676" width="102.155" height="1.84568" rx="0.343365" fill="#E3E7F0"/>
</g>
<g opacity="0.5">
<rect x="18.6357" y="109.68" width="9.89929" height="1.53807" rx="0.343365" fill="#D1D9E9"/>
<rect x="18.502" y="113.717" width="108.89" height="1.84568" rx="0.343365" fill="#E3E7F0"/>
<rect x="18.502" y="116.408" width="102.155" height="1.84568" rx="0.343365" fill="#E3E7F0"/>
<rect x="18.502" y="119.484" width="108.89" height="1.84568" rx="0.343365" fill="#E3E7F0"/>
<rect x="18.502" y="122.368" width="102.155" height="1.84568" rx="0.343365" fill="#E3E7F0"/>
<rect x="18.502" y="125.444" width="108.89" height="1.84568" rx="0.343365" fill="#E3E7F0"/>
<rect x="18.502" y="128.329" width="102.155" height="1.84568" rx="0.343365" fill="#E3E7F0"/>
<rect x="18.502" y="131.405" width="108.89" height="1.84568" rx="0.343365" fill="#E3E7F0"/>
<rect x="18.502" y="134.289" width="102.155" height="1.84568" rx="0.343365" fill="#E3E7F0"/>
</g>
<defs>
<filter id="filter0_d" x="0.59858" y="0.779574" width="145.803" height="161.28" filterUnits="userSpaceOnUse" color-interpolation-filters="sRGB">
<feFlood flood-opacity="0" result="BackgroundImageFix"/>
<feColorMatrix in="SourceAlpha" type="matrix" values="0 0 0 0 0 0 0 0 0 0 0 0 0 0 0 0 0 0 127 0"/>
<feOffset dy="5.18099"/>
<feGaussianBlur stdDeviation="3.70071"/>
<feColorMatrix type="matrix" values="0 0 0 0 0.288656 0 0 0 0 0.564552 0 0 0 0 0.886239 0 0 0 0.179851 0"/>
<feBlend mode="normal" in2="BackgroundImageFix" result="effect1_dropShadow"/>
<feBlend mode="normal" in="SourceGraphic" in2="effect1_dropShadow" result="shape"/>
</filter>
</defs>
</svg>
