<svg width="25" height="29" viewBox="0 0 25 29" fill="none" xmlns="http://www.w3.org/2000/svg">
<path d="M16.1118 11.7492L17.4647 12.4336C17.5809 12.4918 17.7801 12.4918 17.8963 12.4336L18.6682 12.0405C18.7844 11.9822 18.7844 11.8803 18.6682 11.822L17.3153 11.1377C17.1991 11.0794 16.9999 11.0794 16.8837 11.1377L16.1118 11.5308C15.9956 11.5891 15.9956 11.6837 16.1118 11.7492Z" fill="#17253F"/>
<path d="M24.892 14.1827L24.899 11.0733C24.899 11.059 24.899 11.059 24.899 11.0448V11.0377C24.885 10.9665 24.843 10.8954 24.752 10.8385L10.0038 2.19326C9.80077 2.0723 9.47179 2.0723 9.2688 2.19326L0.484234 7.38749C0.36524 7.45864 0.323242 7.55114 0.344241 7.63653V10.5823L0.323242 10.5965L0.337241 10.6108V13.4996L0.323242 13.5067L0.337241 13.5209V16.4169L0.323242 16.424L0.337241 16.4383V19.3413L14.5535 27.709L15.4005 28.2071L15.6945 28.385L24.871 22.9631L24.878 20.0386V20.0315L24.892 14.1827ZM4.23605 6.80403C4.15205 6.75422 4.06806 6.71153 3.97006 6.67595L8.06486 4.25672C8.12786 4.31364 8.19785 4.36345 8.28185 4.41326C9.03081 4.85441 10.2418 4.85441 10.9907 4.41326C11.0747 4.36345 11.1517 4.31364 11.2147 4.24961L21.1822 10.0913C21.0492 10.1411 20.9232 10.191 20.8112 10.2621C20.0693 10.7033 20.0763 11.4148 20.8252 11.856C20.9442 11.9271 21.0702 11.9769 21.2032 12.0267L17.0664 14.4744C16.9894 14.3961 16.8844 14.3179 16.7724 14.2538C16.0235 13.8127 14.8125 13.8127 14.0636 14.2538C14.0076 14.2894 13.9586 14.325 13.9096 14.3606L3.97006 8.52595C4.06806 8.49037 4.15205 8.44768 4.24305 8.39076C4.99201 7.95672 4.98501 7.23807 4.23605 6.80403ZM23.7931 22.2515L15.6945 27.0259L1.42219 18.6369V17.0715L14.5395 24.7775L15.3865 25.2756L15.6875 25.4534L23.7861 20.6577L23.7931 22.2515ZM23.7931 19.3129L15.6805 24.1015L1.42219 15.7196V14.1542L14.5535 21.8744L15.4005 22.3725L15.6945 22.5504L23.7861 17.7688V19.3129H23.7931ZM23.7931 16.3315L15.6945 21.2056L1.42219 12.8165V11.244L14.5395 18.95L15.3865 19.4481L15.6875 19.6259L23.7861 14.8373L23.7931 16.3315ZM23.7931 13.4854L15.6805 18.274L1.42219 9.90634V8.36941L15.2255 16.4738C15.4285 16.5948 15.7575 16.5948 15.9605 16.4738L23.7931 11.8488V13.4854Z" fill="#17253F"/>
<path d="M7.21526 6.90383L8.22992 7.59181C8.31706 7.65037 8.46646 7.65037 8.55361 7.59181L9.13252 7.19659C9.21967 7.13804 9.21967 7.03557 9.13252 6.97702L8.11787 6.29636C8.03072 6.2378 7.88132 6.2378 7.79418 6.29636L7.21526 6.68426C7.12812 6.74281 7.12812 6.84528 7.21526 6.90383Z" fill="#17253F"/>
<path d="M15.5007 7.65027C13.8989 6.7087 11.2986 6.7087 9.70376 7.65027C8.1089 8.59185 8.12277 10.1281 9.72456 11.0768C11.3264 12.0254 13.9267 12.0183 15.5215 11.0768C17.1095 10.1352 17.1025 8.59893 15.5007 7.65027ZM12.1585 9.85908H11.0282V9.19361V8.54937L12.1585 8.55645V9.20069L14.738 9.20777V9.87324L12.1585 9.85908Z" fill="#17253F"/>
</svg>
