<svg width="26" height="17" viewBox="0 0 26 17" fill="none" xmlns="http://www.w3.org/2000/svg">
<path d="M11.9721 5.09306C11.9721 7.28592 10.0692 9.06204 7.71989 9.06204C5.37056 9.06204 3.4677 7.28592 3.4677 5.09306C3.4677 2.9002 5.37056 1.12408 7.71989 1.12408C10.0692 1.12408 11.9721 2.9002 11.9721 5.09306ZM11.9721 11.7609V17H0.278564V15.0155C0.278564 12.8227 3.6059 11.0465 7.71989 11.0465C9.31446 11.0465 10.7708 11.3144 11.9721 11.7609ZM25.7917 17H14.0982V0.131836H25.7917V17ZM17.2873 8.56592C17.2873 7.90802 17.5673 7.27707 18.0657 6.81186C18.5641 6.34666 19.2401 6.08531 19.9449 6.08531C20.6498 6.08531 21.3257 6.34666 21.8241 6.81186C22.3225 7.27707 22.6025 7.90802 22.6025 8.56592C22.6025 9.22382 22.3225 9.85477 21.8241 10.32C21.3257 10.7852 20.6498 11.0465 19.9449 11.0465C19.2401 11.0465 18.5641 10.7852 18.0657 10.32C17.5673 9.85477 17.2873 9.22382 17.2873 8.56592ZM23.6656 4.10082C23.1017 4.10082 22.5609 3.89174 22.1622 3.51957C21.7635 3.14741 21.5395 2.64265 21.5395 2.11633H18.3503C18.3503 3.21772 17.4042 4.10082 16.2243 4.10082V13.031C16.7881 13.031 17.3289 13.2401 17.7276 13.6123C18.1263 13.9844 18.3503 14.4892 18.3503 15.0155H21.5395C21.5395 13.924 22.4962 13.031 23.6656 13.031V4.10082Z" fill="#17253F"/>
</svg>
