<svg width="25" height="28" viewBox="0 0 25 28" fill="none" xmlns="http://www.w3.org/2000/svg">
<path d="M17.6793 22.0786H1.91897C1.3598 22.0786 0.904175 21.596 0.904175 21.0037V5.4298C0.904175 4.83755 1.3598 4.35498 1.91897 4.35498H17.6793C18.2385 4.35498 18.6941 4.83755 18.6941 5.4298V21.0037C18.6941 21.596 18.2385 22.0786 17.6793 22.0786Z" fill="white"/>
<path fill-rule="evenodd" clip-rule="evenodd" d="M1.91898 4.39959C1.38304 4.39959 0.946307 4.8622 0.946307 5.42977V21.0037C0.946307 21.5713 1.38304 22.0339 1.91898 22.0339H17.6793C18.2153 22.0339 18.652 21.5713 18.652 21.0037V5.42977C18.652 4.8622 18.2153 4.39959 17.6793 4.39959H1.91898ZM0.862061 5.42977C0.862061 4.81284 1.33657 4.3103 1.91898 4.3103H17.6793C18.2617 4.3103 18.7362 4.81284 18.7362 5.42977V21.0037C18.7362 21.6206 18.2617 22.1232 17.6793 22.1232H1.91898C1.33657 22.1232 0.862061 21.6206 0.862061 21.0037V5.42977Z" fill="black" stroke="#17253F" stroke-miterlimit="10"/>
<path d="M19.954 24.4894H4.19363C3.63445 24.4894 3.17883 24.0069 3.17883 23.4146V7.84069C3.17883 7.24844 3.63445 6.76587 4.19363 6.76587H19.954C20.5132 6.76587 20.9688 7.24844 20.9688 7.84069V23.4146C20.9688 24.0069 20.5132 24.4894 19.954 24.4894Z" fill="white"/>
<path fill-rule="evenodd" clip-rule="evenodd" d="M4.19376 6.81048C3.65782 6.81048 3.22109 7.27309 3.22109 7.84066V23.4146C3.22109 23.9822 3.65782 24.4448 4.19376 24.4448H19.9541C20.4901 24.4448 20.9268 23.9822 20.9268 23.4146V7.84066C20.9268 7.27309 20.4901 6.81048 19.9541 6.81048H4.19376ZM3.13684 7.84066C3.13684 7.22372 3.61135 6.72119 4.19376 6.72119H19.9541C20.5365 6.72119 21.011 7.22372 21.011 7.84066V23.4146C21.011 24.0315 20.5365 24.534 19.9541 24.534H4.19376C3.61135 24.534 3.13684 24.0315 3.13684 23.4146V7.84066Z" fill="#17253F" stroke="#17253F" stroke-miterlimit="10"/>
<path d="M22.4392 26.915H6.67886C6.11968 26.915 5.66406 26.432 5.66406 25.8392V10.2522C5.66406 9.65949 6.11968 9.17651 6.67886 9.17651H22.4392C22.9984 9.17651 23.454 9.65949 23.454 10.2522V25.8392C23.454 26.432 22.9984 26.915 22.4392 26.915Z" fill="white"/>
<path fill-rule="evenodd" clip-rule="evenodd" d="M6.67886 9.22112C6.14296 9.22112 5.70619 9.68411 5.70619 10.2522V25.8392C5.70619 26.4073 6.14296 26.8703 6.67886 26.8703H22.4392C22.9751 26.8703 23.4119 26.4073 23.4119 25.8392V10.2522C23.4119 9.68411 22.9751 9.22112 22.4392 9.22112H6.67886ZM5.62195 10.2522C5.62195 9.63481 6.09642 9.13184 6.67886 9.13184H22.4392C23.0217 9.13184 23.4961 9.63481 23.4961 10.2522V25.8392C23.4961 26.4566 23.0217 26.9596 22.4392 26.9596H6.67886C6.09642 26.9596 5.62195 26.4566 5.62195 25.8392V10.2522Z" stroke="#17253F" stroke-miterlimit="10"/>
<path d="M18.3005 14.0277H8.14971C7.94255 14.0277 7.7561 13.8522 7.7561 13.611C7.7561 13.3917 7.92183 13.1943 8.14971 13.1943H13.2251H18.3005C18.5076 13.1943 18.6941 13.3698 18.6941 13.611C18.6941 13.8303 18.5283 14.0277 18.3005 14.0277Z" fill="#17253F"/>
<path d="M16.2851 16.6618H8.34008C8.15387 16.6618 8.00903 16.5084 8.00903 16.3112V16.2236C8.00903 16.0264 8.15387 15.873 8.34008 15.873H16.2851C16.4714 15.873 16.6162 16.0264 16.6162 16.2236V16.3112C16.6162 16.4865 16.4714 16.6618 16.2851 16.6618Z" fill="#17253F"/>
<path d="M14.817 19.2958H8.50186C8.33622 19.2958 8.19128 19.1423 8.19128 18.9668V18.7914C8.19128 18.6159 8.33622 18.4624 8.50186 18.4624H14.817C14.9826 18.4624 15.1275 18.6159 15.1275 18.7914V18.9668C15.1275 19.1423 14.9826 19.2958 14.817 19.2958Z" fill="#17253F"/>
<path d="M12.6469 21.7064H8.46775C8.32293 21.7064 8.21948 21.5978 8.21948 21.4458V21.1635C8.21948 21.0114 8.32293 20.9028 8.46775 20.9028H12.6469C12.7917 20.9028 12.8951 21.0114 12.8951 21.1635V21.4458C12.8951 21.5761 12.7917 21.7064 12.6469 21.7064Z" fill="#17253F"/>
</svg>
