<svg width="40" height="38" viewBox="0 0 40 38" fill="none" xmlns="http://www.w3.org/2000/svg">
<path d="M15.5 11.8838V14.3838H3V31.115L5.20375 29.3838H23V20.6338H25.5V30.6338C25.5 30.9653 25.3683 31.2833 25.1339 31.5177C24.8995 31.7521 24.5815 31.8838 24.25 31.8838H6.06875L0.5 36.2588V13.1338C0.5 12.8023 0.631696 12.4843 0.866116 12.2499C1.10054 12.0155 1.41848 11.8838 1.75 11.8838H15.5ZM21.75 11.8838V8.13379H24.25V11.8838H28V14.3838H24.25V18.1338H21.75V14.3838H18V11.8838H21.75Z" fill="#17253F"/>
<path d="M23 2.63379C28.799 2.63379 33.5 7.3348 33.5 13.1338C33.5 18.9328 28.799 23.6338 23 23.6338C17.201 23.6338 12.5 18.9328 12.5 13.1338C12.5 7.3348 17.201 2.63379 23 2.63379Z" fill="#E3030A" stroke="white" stroke-miterlimit="10"/>
<path d="M27.432 14.2644H24.6729V17.2206C24.6729 18.0572 24.0482 18.7266 23.2673 18.7266C22.4864 18.7266 21.8617 18.0572 21.8617 17.2206V14.2644H19.1026C18.3217 14.2644 17.697 13.5951 17.697 12.7584C17.697 11.9217 18.3217 11.2524 19.1026 11.2524H21.8617V8.29621C21.8617 7.45955 22.4864 6.79022 23.2673 6.79022C24.0482 6.79022 24.6729 7.45955 24.6729 8.29621V11.2524H27.432C28.2129 11.2524 28.8376 11.9217 28.8376 12.7584C28.8376 13.5951 28.2129 14.2644 27.432 14.2644Z" fill="white"/>
</svg>
