<svg width="24" height="25" viewBox="0 0 24 25" fill="none" xmlns="http://www.w3.org/2000/svg">
<path d="M17.6793 19.0786H1.91897C1.3598 19.0786 0.904175 18.596 0.904175 18.0037V2.4298C0.904175 1.83755 1.3598 1.35498 1.91897 1.35498H17.6793C18.2385 1.35498 18.6941 1.83755 18.6941 2.4298V18.0037C18.6941 18.596 18.2385 19.0786 17.6793 19.0786Z" fill="white"/>
<path fill-rule="evenodd" clip-rule="evenodd" d="M1.91898 1.39959C1.38304 1.39959 0.946307 1.8622 0.946307 2.42977V18.0037C0.946307 18.5713 1.38304 19.0339 1.91898 19.0339H17.6793C18.2153 19.0339 18.652 18.5713 18.652 18.0037V2.42977C18.652 1.8622 18.2153 1.39959 17.6793 1.39959H1.91898ZM0.862061 2.42977C0.862061 1.81284 1.33657 1.3103 1.91898 1.3103H17.6793C18.2617 1.3103 18.7362 1.81284 18.7362 2.42977V18.0037C18.7362 18.6206 18.2617 19.1232 17.6793 19.1232H1.91898C1.33657 19.1232 0.862061 18.6206 0.862061 18.0037V2.42977Z" fill="black" stroke="#17253F" stroke-miterlimit="10"/>
<path d="M19.954 21.4894H4.19363C3.63445 21.4894 3.17883 21.0069 3.17883 20.4146V4.84069C3.17883 4.24844 3.63445 3.76587 4.19363 3.76587H19.954C20.5132 3.76587 20.9688 4.24844 20.9688 4.84069V20.4146C20.9688 21.0069 20.5132 21.4894 19.954 21.4894Z" fill="white"/>
<path fill-rule="evenodd" clip-rule="evenodd" d="M4.19376 3.81048C3.65782 3.81048 3.22109 4.27309 3.22109 4.84066V20.4146C3.22109 20.9822 3.65782 21.4448 4.19376 21.4448H19.9541C20.4901 21.4448 20.9268 20.9822 20.9268 20.4146V4.84066C20.9268 4.27309 20.4901 3.81048 19.9541 3.81048H4.19376ZM3.13684 4.84066C3.13684 4.22372 3.61135 3.72119 4.19376 3.72119H19.9541C20.5365 3.72119 21.011 4.22372 21.011 4.84066V20.4146C21.011 21.0315 20.5365 21.534 19.9541 21.534H4.19376C3.61135 21.534 3.13684 21.0315 3.13684 20.4146V4.84066Z" fill="#17253F" stroke="#17253F" stroke-miterlimit="10"/>
<path d="M22.4392 23.915H6.67886C6.11968 23.915 5.66406 23.432 5.66406 22.8392V7.25224C5.66406 6.65949 6.11968 6.17651 6.67886 6.17651H22.4392C22.9984 6.17651 23.454 6.65949 23.454 7.25224V22.8392C23.454 23.432 22.9984 23.915 22.4392 23.915Z" fill="white"/>
<path fill-rule="evenodd" clip-rule="evenodd" d="M6.67886 6.22112C6.14296 6.22112 5.70619 6.68411 5.70619 7.2522V22.8392C5.70619 23.4073 6.14296 23.8703 6.67886 23.8703H22.4392C22.9751 23.8703 23.4119 23.4073 23.4119 22.8392V7.2522C23.4119 6.68411 22.9751 6.22112 22.4392 6.22112H6.67886ZM5.62195 7.2522C5.62195 6.63481 6.09642 6.13184 6.67886 6.13184H22.4392C23.0217 6.13184 23.4961 6.63481 23.4961 7.2522V22.8392C23.4961 23.4566 23.0217 23.9596 22.4392 23.9596H6.67886C6.09642 23.9596 5.62195 23.4566 5.62195 22.8392V7.2522Z" stroke="#17253F" stroke-miterlimit="10"/>
<path d="M18.3005 11.0277H8.14971C7.94255 11.0277 7.7561 10.8522 7.7561 10.611C7.7561 10.3917 7.92183 10.1943 8.14971 10.1943H13.2251H18.3005C18.5076 10.1943 18.6941 10.3698 18.6941 10.611C18.6941 10.8303 18.5283 11.0277 18.3005 11.0277Z" fill="#17253F"/>
<path d="M16.2851 13.6618H8.34008C8.15387 13.6618 8.00903 13.5084 8.00903 13.3112V13.2236C8.00903 13.0264 8.15387 12.873 8.34008 12.873H16.2851C16.4714 12.873 16.6162 13.0264 16.6162 13.2236V13.3112C16.6162 13.4865 16.4714 13.6618 16.2851 13.6618Z" fill="#17253F"/>
<path d="M14.817 16.2958H8.50186C8.33622 16.2958 8.19128 16.1423 8.19128 15.9668V15.7914C8.19128 15.6159 8.33622 15.4624 8.50186 15.4624H14.817C14.9826 15.4624 15.1275 15.6159 15.1275 15.7914V15.9668C15.1275 16.1423 14.9826 16.2958 14.817 16.2958Z" fill="#17253F"/>
<path d="M12.6469 18.7064H8.46775C8.32293 18.7064 8.21948 18.5978 8.21948 18.4458V18.1635C8.21948 18.0114 8.32293 17.9028 8.46775 17.9028H12.6469C12.7917 17.9028 12.8951 18.0114 12.8951 18.1635V18.4458C12.8951 18.5761 12.7917 18.7064 12.6469 18.7064Z" fill="#17253F"/>
</svg>
