<svg width="24" height="23" viewBox="0 0 24 23" fill="none" xmlns="http://www.w3.org/2000/svg">
<path d="M5.89784 11.6876C5.90276 11.8397 5.89784 11.987 5.89784 12.1391C5.89784 12.2722 5.82904 12.3435 5.69142 12.3482C5.52431 12.353 5.35721 12.353 5.1901 12.3482C5.04266 12.3435 4.97385 12.2627 4.97385 12.1248C4.97385 12.0155 4.97385 11.9062 4.96893 11.7921C4.96402 11.5497 4.9591 11.5402 4.71828 11.5022C4.40864 11.4547 4.10392 11.3881 3.82377 11.255C3.6026 11.1505 3.57803 11.0982 3.64192 10.8701C3.69107 10.7037 3.7353 10.5326 3.78937 10.3662C3.85326 10.1714 3.90732 10.1476 4.08917 10.2427C4.40372 10.3995 4.73302 10.4898 5.08198 10.5326C5.30806 10.5611 5.52431 10.5373 5.73565 10.4518C6.12393 10.2902 6.18291 9.85292 5.85853 9.5915C5.74548 9.5012 5.62261 9.43941 5.48499 9.38237C5.14587 9.23978 4.792 9.12571 4.46762 8.94034C3.94664 8.63615 3.61734 8.22265 3.65175 7.60951C3.69598 6.91558 4.099 6.48306 4.75759 6.25016C5.02791 6.1551 5.02791 6.15985 5.03283 5.88418C5.03283 5.78912 5.03283 5.69882 5.03283 5.60376C5.03774 5.39463 5.07706 5.36136 5.2884 5.3566C5.35229 5.3566 5.4211 5.3566 5.48499 5.3566C5.93716 5.3566 5.93716 5.3566 5.94208 5.79388C5.94208 6.10282 5.94208 6.10757 6.26155 6.1551C6.50729 6.19313 6.73829 6.25967 6.96437 6.35948C7.08724 6.41176 7.13639 6.49732 7.09707 6.62565C7.03809 6.81576 6.98895 7.00588 6.92505 7.19125C6.86607 7.36711 6.80709 7.39563 6.63016 7.31007C6.27629 7.14372 5.90276 7.07718 5.51448 7.09619C5.41127 7.10094 5.31297 7.1152 5.21468 7.15323C4.87555 7.29582 4.82149 7.65704 5.11147 7.88043C5.25891 7.9945 5.4211 8.0753 5.59804 8.14184C5.89784 8.26067 6.19765 8.37474 6.48271 8.52684C7.38213 9.0259 7.62788 10.1238 6.98895 10.8701C6.75795 11.141 6.45814 11.3216 6.10918 11.4166C5.95682 11.4594 5.88802 11.5355 5.89784 11.6876ZM9.23504 6.53059H18.9026C19.0304 6.53059 19.1336 6.43077 19.1336 6.3072V5.58474C19.1336 5.46117 19.0304 5.36135 18.9026 5.36135H9.23504C9.10725 5.36135 9.00404 5.46117 9.00404 5.58474V6.3072C9.00404 6.43077 9.10725 6.53059 9.23504 6.53059ZM9.00404 8.24641C9.00404 8.36999 9.10725 8.4698 9.23504 8.4698H16.0569C16.1847 8.4698 16.2879 8.36999 16.2879 8.24641V7.52396C16.2879 7.40038 16.1847 7.30057 16.0569 7.30057H9.23504C9.10725 7.30057 9.00404 7.40038 9.00404 7.52396V8.24641ZM19.1336 10.1904V9.46793C19.1336 9.34435 19.0304 9.24453 18.9026 9.24453H9.23504C9.10725 9.24453 9.00404 9.34435 9.00404 9.46793V10.1904C9.00404 10.314 9.10725 10.4138 9.23504 10.4138H18.9026C19.0304 10.4138 19.1336 10.314 19.1336 10.1904ZM1.8824 15.4377H13.334C13.2603 15.2666 13.2112 15.0859 13.1964 14.9006C13.1719 14.5108 13.1473 14.1211 13.1227 13.7266H1.8824C1.8185 13.7266 1.76935 13.6791 1.76935 13.6173V3.83565H11.6925H21.6156V13.6173C21.6156 13.6791 21.5665 13.7266 21.5026 13.7266H20.3574C20.7899 14.2922 21.2273 14.8626 21.6598 15.4282C22.6231 15.3521 23.385 14.5679 23.385 13.6173V1.82039C23.385 0.817512 22.5396 0 21.5026 0H1.8824C0.845358 0 0 0.817512 0 1.82039V13.6173C0 14.6202 0.845358 15.4377 1.8824 15.4377ZM11.6433 11.1837H10.6554H9.23504C9.10725 11.1837 9.00404 11.2836 9.00404 11.4071V12.1296C9.00404 12.2532 9.10725 12.353 9.23504 12.353H10.6554H11.6433H13.0392C13.0342 12.2817 13.0293 12.2151 13.0244 12.1438L12.99 11.5973C12.9802 11.4547 12.9949 11.3168 13.0244 11.1837H11.6433ZM18.0572 12.5764C19.7824 14.834 21.9547 17.5242 23.6798 19.7819C24.2156 20.4806 24.0632 21.4692 23.3407 21.9873L22.3577 22.6907C21.6353 23.2088 20.613 23.0614 20.0772 22.358C18.9714 20.9083 17.4134 19.0262 16.3075 17.5765C15.6834 16.7637 15.0592 15.951 14.4448 15.1335C14.376 15.0432 14.3367 14.9386 14.3318 14.8293C14.258 13.7313 14.1892 12.6334 14.1253 11.5402C14.1106 11.2645 14.3121 11.122 14.5775 11.217C15.6342 11.5973 16.6909 11.9822 17.7525 12.3625C17.8754 12.3958 17.9835 12.4766 18.0572 12.5764ZM17.202 12.8235C16.7892 12.6762 16.3813 12.5241 15.9733 12.3815C15.8062 12.8283 15.3688 13.1325 14.8773 13.142V13.1467C14.9019 13.5983 14.9314 14.045 14.9609 14.5061C15.1624 14.5536 15.3442 14.5251 15.5212 14.4728C16.1503 14.2779 16.6565 13.9167 17.0497 13.4081C17.148 13.2798 17.202 13.1135 17.2758 12.9661C17.3102 12.8948 17.2856 12.852 17.202 12.8235Z" fill="#17253F"/>
</svg>
